# xmcd
#
# Track frame offsets:
#	150
#	24815
#	56318
#	73070
#	100030
#	120130
#	135580
#	151168
#	209048
#	228063
#	250955
#
# Disc length: 3877 seconds
#
# Revision: 1
# Processed by: cddbd v1.5.2PL0 Copyright (c) Steve Scherf et al.
# Submitted via: EasyCDDAExtractor 11.5.0.1
#
DISCID=810f230b
DTITLE=Юрий Наумов - Москвский Буги
DYEAR=1994
DGENRE=Blues
TTITLE0=Московский Буги
TTITLE1=Поролоновый Город
TTITLE2=Никак не похоже на блюз
TTITLE3=возвращение Блудного Сына
TTITLE4=Пинг-понг блюз
TTITLE5=Звёздная ночь
TTITLE6=Я собрался не туда
TTITLE7=Дорога Назад
TTITLE8=Нью-Йорк, 5-я Авеню
TTITLE9=Сказка о Карле
TTITLE10=Театр Станиславского
EXTD=
EXTT0=
EXTT1=
EXTT2=
EXTT3=
EXTT4=
EXTT5=
EXTT6=
EXTT7=
EXTT8=
EXTT9=
EXTT10=
PLAYORDER=
